# xmcd CD database file
#
# Track frame offsets:
#	150
#	17254
#	32774
#	53244
#	74355
#	87920
#	100911
#	112894
#	130385
#	145969
#	157109
#	180591
#	196126
#	220586
#	234268
#	250428
#	262256
#	275897
#
# Disc length: 3859 seconds
#
# Revision: 4
# Processed by: cddbd v1.5.2PL0 Copyright (c) Steve Scherf et al.
# Submitted via: CDex 2.09
#
DISCID=050f1112
DTITLE=Ibrahim Ferrer - Ay Candela - [CD1)
DYEAR=2011
DGENRE=Latin
TTITLE0=Ahora no Puedo
TTITLE1=Ay, Candela
TTITLE2=Compositor Confundido
TTITLE3=Cucuruchito de Coco
TTITLE4=El Botellero
TTITLE5=El Platanal de Bartolo
TTITLE6=Fomento
TTITLE7=La Chica Del Granizado
TTITLE8=Manana me Voy a Sibanicu
TTITLE9=Mi Oriente
TTITLE10=Mi Tonada Montuna
TTITLE11=Santa Cecilia
TTITLE12=Todavia me Queda Voz
TTITLE13=Una Fuerza Inmensa
TTITLE14=Viene de la Tierra Caliente
TTITLE15=Ya Soy Feliz
TTITLE16=Habana Camilo
TTITLE17=Un Granito de Arena
EXTD=YEAR: 2011
EXTT0=
EXTT1=
EXTT2=
EXTT3=
EXTT4=
EXTT5=
EXTT6=
EXTT7=
EXTT8=
EXTT9=
EXTT10=
EXTT11=
EXTT12=
EXTT13=
EXTT14=
EXTT15=
EXTT16=
EXTT17=
PLAYORDER=
